{
  "accessors": [
    {
      "bufferView": 2,
      "componentType": 5126,
      "count": 6442,
      "max": [
        0.6902059316635132,
        1.8593058586120605,
        2.913933753967285
      ],
      "min": [
        -0.6902060508728027,
        -1.4568158388137817,
        0.0017202741000801325
      ],
      "type": "VEC3"
    },
    {
      "bufferView": 2,
      "byteOffset": 77304,
      "componentType": 5126,
      "count": 6442,
      "max": [
        1.0,
        1.0,
        1.0
      ],
      "min": [
        -1.0,
        -1.0,
        -1.0
      ],
      "type": "VEC3"
    },
    {
      "bufferView": 1,
      "componentType": 5126,
      "count": 6442,
      "max": [
        0.9986873269081116,
        0.9991648197174072
      ],
      "min": [
        0.0009057616116479039,
        0.0009057616116479039
      ],
      "type": "VEC2"
    },
    {
      "bufferView": 0,
      "componentType": 5125,
      "count": 15807,
      "type": "SCALAR"
    },
    {
      "bufferView": 2,
      "byteOffset": 154608,
      "componentType": 5126,
      "count": 16,
      "max": [
        0.11653662472963333,
        -0.4969542622566223,
        2.51589035987854
      ],
      "min": [
        -0.21973353624343872,
        -0.8643108010292053,
        2.2886500358581543
      ],
      "type": "VEC3"
    },
    {
      "bufferView": 2,
      "byteOffset": 154800,
      "componentType": 5126,
      "count": 16,
      "max": [
        3.5082152027160474e-12,
        3.939815940157132e-08,
        7.594719164671915e-08
      ],
      "min": [
        -1.0,
        -1.0,
        -4.5982878305039776e-07
      ],
      "type": "VEC3"
    },
    {
      "bufferView": 1,
      "byteOffset": 51536,
      "componentType": 5126,
      "count": 16,
      "max": [
        0.9963769316673279,
        0.7658588886260986
      ],
      "min": [
        0.0021611633710563183,
        0.0038431354332715273
      ],
      "type": "VEC2"
    },
    {
      "bufferView": 0,
      "byteOffset": 63228,
      "componentType": 5125,
      "count": 24,
      "type": "SCALAR"
    }
  ],
  "asset": {
    "extras": {
      "author": "Irina Kostina (https://sketchfab.com/irinakostina)",
      "license": "CC-BY-4.0 (http://creativecommons.org/licenses/by/4.0/)",
      "source": "https://sketchfab.com/3d-models/stylized-wagon-f0647d381ae647a5a5e5f819a152955a",
      "title": "Stylized wagon"
    },
    "generator": "Sketchfab-15.9.0",
    "version": "2.0"
  },
  "bufferViews": [
    {
      "buffer": 0,
      "byteLength": 63324,
      "name": "floatBufferViews",
      "target": 34963
    },
    {
      "buffer": 0,
      "byteLength": 51664,
      "byteOffset": 63324,
      "byteStride": 8,
      "name": "floatBufferViews",
      "target": 34962
    },
    {
      "buffer": 0,
      "byteLength": 154992,
      "byteOffset": 114988,
      "byteStride": 12,
      "name": "floatBufferViews",
      "target": 34962
    }
  ],
  "buffers": [
    {
      "byteLength": 269980,
      "uri": "scene.bin"
    }
  ],
  "extensionsRequired": [
    "KHR_materials_pbrSpecularGlossiness"
  ],
  "extensionsUsed": [
    "KHR_materials_pbrSpecularGlossiness"
  ],
  "images": [
    {
      "uri": "textures/WagonBase_diffuse.png"
    },
    {
      "uri": "textures/WagonBase_specularGlossiness.png"
    },
    {
      "uri": "textures/WagonBase_emissive.png"
    },
    {
      "uri": "textures/WagonBase_occlusion.png"
    },
    {
      "uri": "textures/WagonAlfa_diffuse.png"
    }
  ],
  "materials": [
    {
      "doubleSided": true,
      "emissiveFactor": [
        0.1676829268292683,
        0.1676829268292683,
        0.1676829268292683
      ],
      "emissiveTexture": {
        "index": 2
      },
      "extensions": {
        "KHR_materials_pbrSpecularGlossiness": {
          "diffuseFactor": [
            1.0,
            1.0,
            1.0,
            1.0
          ],
          "diffuseTexture": {
            "index": 0
          },
          "glossinessFactor": 1.0,
          "specularFactor": [
            0.0,
            0.0,
            0.0
          ],
          "specularGlossinessTexture": {
            "index": 1
          }
        }
      },
      "name": "WagonBase",
      "occlusionTexture": {
        "index": 3
      }
    },
    {
      "alphaMode": "MASK",
      "doubleSided": true,
      "extensions": {
        "KHR_materials_pbrSpecularGlossiness": {
          "diffuseFactor": [
            1.0,
            1.0,
            1.0,
            1.0
          ],
          "diffuseTexture": {
            "index": 4
          },
          "glossinessFactor": 0.0,
          "specularFactor": [
            0.0,
            0.0,
            0.0
          ]
        }
      },
      "name": "WagonAlfa"
    }
  ],
  "meshes": [
    {
      "name": "WagonBase_WagonBase_0",
      "primitives": [
        {
          "attributes": {
            "NORMAL": 1,
            "POSITION": 0,
            "TEXCOORD_0": 2
          },
          "indices": 3,
          "material": 0,
          "mode": 4
        }
      ]
    },
    {
      "name": "WagonAlfa_WagonAlfa_0",
      "primitives": [
        {
          "attributes": {
            "NORMAL": 5,
            "POSITION": 4,
            "TEXCOORD_0": 6
          },
          "indices": 7,
          "material": 1,
          "mode": 4
        }
      ]
    }
  ],
  "nodes": [
    {
      "children": [
        1
      ],
      "matrix": [
        1.0,
        0.0,
        0.0,
        0.0,
        0.0,
        2.220446049250313e-16,
        -1.0,
        0.0,
        0.0,
        1.0,
        2.220446049250313e-16,
        0.0,
        0.0,
        0.0,
        0.0,
        1.0
      ],
      "name": "Sketchfab_model"
    },
    {
      "children": [
        2
      ],
      "matrix": [
        0.009999999776482582,
        0.0,
        0.0,
        0.0,
        0.0,
        0.0,
        0.009999999776482582,
        0.0,
        0.0,
        -0.009999999776482582,
        0.0,
        0.0,
        0.0,
        0.0,
        0.0,
        1.0
      ],
      "name": "eeb7e54f2a8e4a14bafb2e9565edd544.fbx"
    },
    {
      "children": [
        3,
        5
      ],
      "name": "RootNode"
    },
    {
      "children": [
        4
      ],
      "matrix": [
        100.0,
        0.0,
        0.0,
        0.0,
        0.0,
        -1.629206793918314e-05,
        -99.99999999999868,
        0.0,
        0.0,
        99.99999999999868,
        -1.629206793918314e-05,
        0.0,
        0.0,
        0.0,
        0.0,
        1.0
      ],
      "name": "WagonBase"
    },
    {
      "mesh": 0,
      "name": "WagonBase_WagonBase_0"
    },
    {
      "children": [
        6
      ],
      "matrix": [
        100.0,
        0.0,
        0.0,
        0.0,
        0.0,
        -1.629206793918314e-05,
        -99.99999999999868,
        0.0,
        0.0,
        99.99999999999868,
        -1.629206793918314e-05,
        0.0,
        0.0,
        0.0,
        0.0,
        1.0
      ],
      "name": "WagonAlfa"
    },
    {
      "mesh": 1,
      "name": "WagonAlfa_WagonAlfa_0"
    }
  ],
  "samplers": [
    {
      "magFilter": 9729,
      "minFilter": 9987,
      "wrapS": 10497,
      "wrapT": 10497
    }
  ],
  "scene": 0,
  "scenes": [
    {
      "name": "Sketchfab_Scene",
      "nodes": [
        0
      ]
    }
  ],
  "textures": [
    {
      "sampler": 0,
      "source": 0
    },
    {
      "sampler": 0,
      "source": 1
    },
    {
      "sampler": 0,
      "source": 2
    },
    {
      "sampler": 0,
      "source": 3
    },
    {
      "sampler": 0,
      "source": 4
    }
  ]
}
